<?xml version="1.0" encoding="UTF-8" standalone="no"?>
<!-- Created with Inkscape (http://www.inkscape.org/) -->

<svg
   width="210mm"
   height="297mm"
   viewBox="0 0 210 297"
   version="1.1"
   id="svg5"
   inkscape:version="1.2.2 (1:1.2.2+202212051552+b0a8486541)"
   sodipodi:docname="drawing.svg"
   xmlns:inkscape="http://www.inkscape.org/namespaces/inkscape"
   xmlns:sodipodi="http://sodipodi.sourceforge.net/DTD/sodipodi-0.dtd"
   xmlns="http://www.w3.org/2000/svg"
   xmlns:svg="http://www.w3.org/2000/svg">
  <sodipodi:namedview
     id="namedview7"
     pagecolor="#ffffff"
     bordercolor="#000000"
     borderopacity="0.25"
     inkscape:showpageshadow="2"
     inkscape:pageopacity="0.0"
     inkscape:pagecheckerboard="0"
     inkscape:deskcolor="#d1d1d1"
     inkscape:document-units="mm"
     showgrid="false"
     inkscape:zoom="2.99263"
     inkscape:cx="190.13376"
     inkscape:cy="110.43798"
     inkscape:window-width="1846"
     inkscape:window-height="1016"
     inkscape:window-x="0"
     inkscape:window-y="0"
     inkscape:window-maximized="1"
     inkscape:current-layer="layer1" />
  <defs
     id="defs2" />
  <g
     inkscape:label="Layer 1"
     inkscape:groupmode="layer"
     id="layer1">
    <path
       style="fill:#000000;stroke-width:0.264583"
       d="m 6.8445935,11.34238 c 3.4533125,-0.775158 7.0690745,-1.017685 10.6039765,-0.815691 3.265097,0.186577 -0.740055,0.134318 2.521225,0.222461 1.82635,0.04936 3.659704,0 5.487372,0"
       id="path312" />
    <path
       style="fill:#000000;stroke-width:0.264583"
       d="m 9.5245702,14.632819 c 1.9835868,-0.182496 3.9345958,-0.696278 5.9187168,-0.866345 1.158359,-0.09929 2.321178,0.04626 3.485223,-0.07415 0.618499,-0.06398 1.228502,-0.257531 1.853842,-0.296614 0.857001,-0.05356 1.735148,0 2.595379,0"
       id="path314" />
    <path
       style="fill:#000000;stroke-width:0.264583"
       d="M 6.1004457,15.842777 C 10.521302,15.147649 15.044998,14.94687 19.521739,15.10124 c 0.422851,0.01458 0.83799,0.128183 1.260613,0.148308 1.260346,0.06002 2.519158,0.07415 3.781838,0.07415"
       id="path316" />
    <path
       style="fill:#000000;stroke-width:0.264583"
       d="m 6.9563463,17.842315 c 1.3635273,-0.198118 2.7137188,-0.535791 4.0888967,-0.655372 1.556412,-0.13534 2.946258,0.35208 4.449221,0.519076 0.774003,0.086 3.945057,0.134489 4.745835,-0.07415 0.401276,-0.104553 0.877252,0.08148 1.284634,0 0.552237,-0.110448 1.103112,-0.148307 1.672113,-0.148307"
       id="path318" />
    <path
       style="fill:#000000;stroke-width:0.264583"
       d="m 28.527756,11.067698 c 1.218334,-0.32634 2.382985,-0.849693 3.620476,-1.1102166 0.929092,-0.1955987 1.947442,-0.074154 2.891994,-0.074154 2.019382,0 4.038764,0 6.058146,0"
       id="path320" />
    <path
       style="fill:#000000;stroke-width:0.264583"
       d="m 28.031135,13.246876 c 1.959917,-0.144651 4.023577,-0.122036 5.932295,-0.667383 0.935714,-0.267347 1.78291,-0.68098 2.743686,-0.889844 1.004515,-0.218373 2.029757,-0.121407 3.040301,-0.222461 0.293611,-0.02936 0.547505,-0.08126 0.815689,-0.148308 0.209376,-0.05234 0.45801,0.05234 0.667385,0 0.224904,-0.05623 0.264046,-0.148307 0.519076,-0.148307"
       id="path322" />
    <path
       style="fill:#000000;stroke-width:0.264583"
       d="m 29.074509,15.537285 c 0.856004,-0.128609 1.86109,-0.297889 2.728542,-0.357714 0.874104,-0.06028 1.795174,0 2.669532,0 1.841818,0 3.661643,-0.03421 5.48685,0.148308 0.557525,0.05575 1.736982,-0.09551 2.224611,0.148307"
       id="path324" />
    <path
       style="fill:#000000;stroke-width:0.264583"
       d="m 28.919934,17.696097 c 0.660273,-0.18959 1.337387,-0.0051 2.00215,-0.06841 1.604129,-0.152774 3.283286,-0.275511 4.894143,-0.07415 0.682205,0.08527 1.392889,-0.07594 2.076302,0 0.854803,0.09498 2.806097,0.23964 3.633531,0.07415 0.449863,-0.08997 0.943501,-0.424424 1.260613,-0.741536"
       id="path326" />
    <path
       style="fill:#000000;stroke-width:0.264583"
       d="m 18.205251,25.120864 c 0.355798,-0.03777 0.711596,-0.07555 1.067395,-0.113319 0.197743,0 0.396572,0.0207 0.593229,0 1.064879,-0.112093 0.503164,-0.165851 1.40892,-0.222461 2.298865,-0.143679 4.618312,-0.07415 6.925015,-0.07415"
       id="path328" />
    <path
       style="fill:#000000;stroke-width:0.264583"
       d="m 19.259068,26.652503 c 2.609512,0.04515 5.2042,-0.07415 7.81068,-0.07415"
       id="path330" />
    <path
       style="fill:#000000;stroke-width:0.264583"
       d="m 18.435545,28.366915 c 2.928989,-0.104954 5.863606,-0.07415 8.796088,-0.07415"
       id="path332" />
    <path
       style="fill:#000000;stroke-width:0.264583"
       d="m 18.760359,30.540872 c 2.970124,-0.617236 5.976869,-0.65015 8.993482,-0.65015"
       id="path334" />
    <path
       style="fill:#000000;stroke-width:0.264583"
       d="m 19.221469,32.970189 c 2.495547,-0.343059 5.03184,-0.494533 7.556885,-0.494533"
       id="path336" />
    <path
       style="fill:#000000;stroke-width:0.264583"
       d="m 19.491451,35.050669 c 0.796654,-0.02548 1.518146,-0.481179 2.282054,-0.633963 0.606653,-0.12133 1.311284,0.05139 1.927995,0 0.400605,-0.03338 0.788335,-0.161211 1.186459,-0.222459 0.678685,-0.104415 1.384411,-0.07415 2.076302,-0.07415"
       id="path338" />
    <path
       style="fill:#000000;stroke-width:0.264583"
       d="m 18.611007,37.548917 c 0.733591,-0.406177 0.387963,-0.225575 1.033451,-0.548319 0.797287,-0.398643 1.553439,-0.726329 2.447072,-0.815692 1.078689,-0.107868 2.220431,0 3.309238,0 0.319407,0 0.736851,0.07591 1.044418,0 0.170788,-0.04215 0.276497,-0.214228 0.433956,-0.292958"
       id="path340" />
    <path
       style="fill:#000000;stroke-width:0.264583"
       d="m 18.351469,39.356805 c 2.129568,0 4.259137,0 6.388705,0 0.677156,0 1.616072,0.163737 2.141056,-0.365025"
       id="path342" />
    <path
       style="fill:#000000;stroke-width:0.264583"
       d="m 59.184558,23.972527 c -0.31713,1.615222 -0.447429,3.26371 -0.360847,4.908765 0.03043,0.578234 0.188841,1.133986 0.222462,1.705533 0.120705,2.052 0.07415,4.122566 0.07415,6.181389"
       id="path344" />
    <path
       style="fill:#000000;stroke-width:0.264583"
       d="m 61.030045,24.589778 c -0.216016,1.571403 -0.270595,3.185561 -0.19844,4.772989 0.02476,0.544947 0.193786,1.08657 0.222462,1.631382 0.08118,1.542428 0,3.107676 0,4.653928"
       id="path346" />
    <path
       style="fill:#000000;stroke-width:0.264583"
       d="m 63.314188,24.306218 c -0.163859,1.241063 -0.399651,2.471038 -0.581742,3.709251 -0.12432,0.845379 0,1.809917 0,2.669532 0,1.815024 0,3.630049 0,5.445072"
       id="path348" />
    <path
       style="fill:#000000;stroke-width:0.264583"
       d="m 64.583156,24.586645 c 0.01347,2.753309 -0.193921,5.519273 -0.07416,8.27388 0.04219,0.970396 0.239752,1.925349 0.296614,2.891993 0.04035,0.686023 0,1.387901 0,2.076302"
       id="path350" />
    <path
       style="fill:#000000;stroke-width:0.264583"
       d="m 55.017331,9.8133518 c -0.29781,3.0637172 0.01148,6.1228332 0.01148,9.1919232"
       id="path352" />
    <path
       style="fill:#000000;stroke-width:0.264583"
       d="m 55.753645,8.5140958 c 0,3.3529302 0,6.7058602 0,10.0587902"
       id="path354" />
    <path
       style="fill:#000000;stroke-width:0.264583"
       d="m 56.833573,8.1563825 c 0.04804,0.3115848 0.09218,0.6237968 0.14413,0.9347542 0.148777,0.8905464 0.397293,1.7645533 0.444923,2.6695323 0.0841,1.597898 -0.132858,3.225175 0,4.819467 0.02498,0.299667 0.126881,0.589902 0.148307,0.889844 0.05225,0.731468 0,1.490738 0,2.224611"
       id="path356" />
    <path
       style="fill:#000000;stroke-width:0.264583"
       d="m 58.898387,9.3026313 c 0,3.4129837 0,6.8259677 0,10.2389517"
       id="path358" />
    <path
       style="fill:#000000;stroke-width:0.264583"
       d="m 61.642595,8.7036576 c -0.387699,2.0364754 0.04587,4.0760034 0.172852,6.1077564 0.112178,1.794843 0,3.63222 0,5.434107"
       id="path360" />
    <path
       style="fill:#000000;stroke-width:0.264583"
       d="m 64.966979,8.2791016 c -0.192474,1.3265279 -0.07389,0.420897 -0.259538,2.3238304 -0.126685,1.298511 -0.30693,2.620647 -0.222462,3.929623 0.09259,1.434887 0.431523,2.885744 0.667383,4.300913 0.13413,0.804776 0.07416,1.63372 0.07416,2.447071"
       id="path362" />
    <path
       style="fill:#000000;stroke-width:0.264583"
       d="m 67.280887,7.997631 c 0.134033,0.522035 0.281718,1.0407541 0.402101,1.5661047 0.321606,1.4034853 0.526322,2.8512093 0.963998,4.2267593 0.558327,1.754744 1.038151,3.556598 1.038151,5.412697"
       id="path364" />
    <path
       style="fill:#000000;stroke-width:0.264583"
       d="m 71.693031,7.4775107 c -0.04752,0.2276832 -0.120539,0.4515051 -0.142563,0.6830494 -0.09129,0.9596662 0,1.9279959 0,2.8919939 0,1.696657 -0.128966,3.446802 0.222459,5.116081 0.0625,0.296887 0.324758,1.447339 0.370769,1.631381 0.115829,0.463313 0.370768,0.853678 0.370768,1.334767"
       id="path366" />
    <path
       style="fill:#000000;stroke-width:0.264583"
       d="m 74.093625,8.4608304 c 0.0453,0.6002194 -0.03161,1.2036525 0,1.8042316 0.03939,0.748416 0.347435,1.419112 0.444923,2.149935 0.07672,0.575098 0,1.195929 0,1.779688 0,1.36871 0,2.73742 0,4.10613"
       id="path368" />
    <path
       style="fill:#000000;stroke-width:0.264583"
       d="m 59.18769,9.6598223 c 0,2.7696227 0,5.5392447 0,8.3088677"
       id="path370" />
    <path
       style="fill:#000000;stroke-width:0.264583"
       d="m 58.484274,8.3908544 c -0.791916,2.7295896 -0.649626,5.5847456 -0.649626,8.3950316 0,0.678586 -0.155061,2.049289 0,2.669533 0.154551,0.618212 0.444921,0.793997 0.444921,1.507617"
       id="path372" />
    <path
       style="fill:#000000;stroke-width:0.264583"
       d="m 60.016437,8.816977 c -0.226909,3.223907 -0.146741,6.462058 -0.146741,9.693243"
       id="path374" />
    <path
       style="fill:#000000;stroke-width:0.264583"
       d="m 53.371329,10.087511 c -0.08071,1.633417 0.354793,3.230584 0.44492,4.852889 0.04022,0.723908 -0.02827,1.507658 0.07415,2.22461 0.05116,0.358136 0.251748,0.679219 0.296614,1.038152 0.03267,0.261341 0,0.550593 0,0.81569"
       id="path376" />
    <path
       style="fill:#000000;stroke-width:0.264583"
       d="m 84.367501,10.755484 c 0.768382,-0.158149 1.551623,-0.250771 2.324259,-0.387147 0.296833,-0.05239 0.582549,-0.168874 0.882735,-0.196163 0.651192,-0.0592 1.308203,-0.0242 1.961634,0 1.444005,0.05348 -0.07225,0.01377 1.127937,0.147122 0.447185,0.04969 0.922689,0 1.373145,0"
       id="path378" />
    <path
       style="fill:#000000;stroke-width:0.264583"
       d="m 85.148699,12.029164 c 1.363271,-0.314606 2.783697,-0.186688 4.168471,-0.147123 0.742902,0.02123 0.604425,-0.03732 1.324102,0.04904 0.694502,0.08334 1.370216,0.293876 2.059371,0.392327 1.245878,0.177982 -1.03219,-0.294764 0.735613,0.09808"
       id="path380" />
    <path
       style="fill:#000000;stroke-width:0.264583"
       d="m 86.435159,13.593635 c 2.20444,-0.172251 4.410483,0.157983 6.617404,3.44e-4"
       id="path382" />
    <path
       style="fill:#000000;stroke-width:0.264583"
       d="m 86.248318,14.816202 c 2.476048,-0.219659 5.000747,0.790341 7.453863,0.245205"
       id="path384" />
    <path
       style="fill:#000000;stroke-width:0.264583"
       d="m 85.728902,17.058612 c 1.893527,-0.01166 3.749434,0.429152 5.624845,0.637531"
       id="path386" />
    <path
       style="fill:#000000;stroke-width:0.264583"
       d="m 95.730469,10.256441 c 1.634463,-0.09368 3.232832,0.21258 4.850551,0.392327"
       id="path388" />
    <path
       style="fill:#000000;stroke-width:0.264583"
       d="m 95.662778,11.426169 c 1.632458,-0.238924 3.313134,0.398183 4.929292,0.196163 0.78984,-0.09873 1.50571,-0.294245 2.30492,-0.294245"
       id="path390" />
    <path
       style="fill:#000000;stroke-width:0.264583"
       d="m 96.346932,13.363972 c 2.341997,-0.117511 4.765238,0.04956 7.063258,-0.524944"
       id="path392" />
    <path
       style="fill:#000000;stroke-width:0.264583"
       d="m 97.085998,15.374301 c 1.737035,-0.323291 3.518082,0.148922 5.233552,-0.341214"
       id="path394" />
    <path
       style="fill:#000000;stroke-width:0.264583"
       d="m 96.164928,16.344757 c 1.094592,0.12761 2.204305,0.07283 3.298515,0.194436 0.911307,0.101277 1.780387,0.245205 2.696897,0.245205"
       id="path396" />
    <path
       style="fill:#000000;stroke-width:0.264583"
       d="m 106.07359,10.661546 c 0.97373,-0.432475 1.96972,-0.561186 3.006,-0.6648142 0.36372,-0.036372 0.65915,-0.1471223 1.02986,-0.1471223"
       id="path398" />
    <path
       style="fill:#000000;stroke-width:0.264583"
       d="m 106.50874,12.738529 c 1.71317,-0.41077 3.43013,-0.94876 5.16829,-1.238454 0.35305,-0.05884 0.69741,0.08724 0.98081,-0.196163"
       id="path400" />
    <path
       style="fill:#000000;stroke-width:0.264583"
       d="m 106.82958,13.965931 c 0.76274,-0.13829 0.39896,-0.07618 1.42322,-0.236225 0.72516,-0.113305 1.42382,-0.147122 2.15745,-0.147122 0.7271,0 1.49713,0.07935 2.20684,-0.09808"
       id="path402" />
    <path
       style="fill:#000000;stroke-width:0.264583"
       d="m 106.73565,15.725185 c 1.26773,-0.0753 2.52584,-0.399635 3.79306,-0.474177 0.92288,-0.05429 1.86905,0 2.79533,0"
       id="path404" />
    <path
       style="fill:#000000;stroke-width:0.264583"
       d="m 106.05805,17.292765 c 2.3464,-0.626728 4.53087,-0.473486 6.89646,-0.473486"
       id="path406" />
  </g>
</svg>
